<svg width="35" height="35" viewBox="0 0 35 35" fill="none" xmlns="http://www.w3.org/2000/svg">
<path d="M17.4998 18.9583C18.3053 18.9583 18.9582 18.3053 18.9582 17.4999C18.9582 16.6945 18.3053 16.0416 17.4998 16.0416C16.6944 16.0416 16.0415 16.6945 16.0415 17.4999C16.0415 18.3053 16.6944 18.9583 17.4998 18.9583Z" stroke="black" stroke-width="2" stroke-linecap="round" stroke-linejoin="round"/>
<path d="M17.4998 8.74992C18.3053 8.74992 18.9582 8.097 18.9582 7.29159C18.9582 6.48617 18.3053 5.83325 17.4998 5.83325C16.6944 5.83325 16.0415 6.48617 16.0415 7.29159C16.0415 8.097 16.6944 8.74992 17.4998 8.74992Z" stroke="black" stroke-width="2" stroke-linecap="round" stroke-linejoin="round"/>
<path d="M17.4998 29.1666C18.3053 29.1666 18.9582 28.5137 18.9582 27.7083C18.9582 26.9028 18.3053 26.2499 17.4998 26.2499C16.6944 26.2499 16.0415 26.9028 16.0415 27.7083C16.0415 28.5137 16.6944 29.1666 17.4998 29.1666Z" stroke="black" stroke-width="2" stroke-linecap="round" stroke-linejoin="round"/>
</svg>
